# xmcd CD database file
#
# Track frame offsets:
#	150
#	13845
#	27527
#	39300
#	53665
#	65140
#	76312
#	93102
#	107802
#	120665
#	150774
#
# Disc length: 2016 seconds
#
# Revision: 0
# Processed by: cddbd v1.5.1PL0 Copyright (c) Steve Scherf et al.
# Submitted via: CDex 1.51
#
DISCID=7f07de0b
DTITLE=テルスター - テルスター対策
DYEAR=2001
DGENRE=Rock
TTITLE0=アーチストの欄
TTITLE1=基礎は耐える
TTITLE2=天才、からまわり
TTITLE3=キープ オン
TTITLE4=見えぬ方向性
TTITLE5=街に残る
TTITLE6=違和感みたいなもの
TTITLE7=即、相談なんて
TTITLE8=収穫なし 配慮なし
TTITLE9=追っかけ理想ゲーム
TTITLE10=データ
EXTD=YEAR: 2001
EXTT0=
EXTT1=
EXTT2=
EXTT3=
EXTT4=
EXTT5=
EXTT6=
EXTT7=
EXTT8=
EXTT9=
EXTT10=
PLAYORDER=
